<?xml version="1.0"?>
<svg xmlns="http://www.w3.org/2000/svg" id="Capa_1" enable-background="new 0 0 512 512" height="512px" viewBox="0 0 512 512" width="512px"><g><path d="m256 429.669c-2.405 0-4.81-.578-7-1.733-.708-.373-17.529-9.3-34.503-22.68-25.184-19.852-37.887-39.417-37.757-58.154.184-26.489 21.757-48.039 48.092-48.039 11.674 0 22.653 4.26 31.169 11.525 8.515-7.266 19.495-11.525 31.168-11.525 12.93 0 25.07 5.054 34.184 14.232 9.057 9.12 13.996 21.199 13.907 34.014-.129 18.642-12.884 38.132-37.91 57.931-16.908 13.376-33.608 22.302-34.31 22.675-2.201 1.169-4.621 1.754-7.04 1.754zm-31.169-100.606c-9.907 0-18.023 8.185-18.093 18.247-.103 14.948 27.177 37.124 49.225 50.151 21.947-13.093 49.193-35.371 49.297-50.359.033-4.762-1.812-9.261-5.194-12.667-3.44-3.464-8.021-5.372-12.898-5.372-7.626 0-14.469 4.86-17.026 12.093-2.119 5.993-7.786 10-14.142 10s-12.023-4.007-14.142-10c-2.558-7.234-9.4-12.093-17.027-12.093z" data-original="#000000" class="active-path" data-old_color="#000000" fill="#EC5E87"/><path d="m256.183 512c-46.829 0-90.951-18.82-124.241-52.993-33.186-34.066-51.461-79.161-51.461-126.976l-.402-204.814c0-25.244 21.112-45.757 47.063-45.757 6.031 0 11.802 1.108 17.106 3.126v-18.327c0-25.215 21.154-45.729 47.156-45.729 7.943 0 15.432 1.913 22.005 5.291 7.644-15.27 23.799-25.821 42.448-25.821 22.029 0 40.579 14.723 45.732 34.556 5.742-2.417 12.074-3.759 18.722-3.759 26.002 0 47.156 20.514 47.156 45.729v60.113c5.358-2.056 11.195-3.186 17.298-3.186 26.002 0 47.156 20.514 47.156 45.729-.019 69.182-.024 82.295-.045 85.106h.008v67.746c0 47.815-18.276 92.909-51.461 126.976-33.289 34.17-77.411 52.99-124.24 52.99zm-129.042-400.54c-9.408 0-17.063 7.056-17.063 15.728l.402 204.814c0 39.979 15.253 77.639 42.951 106.071 27.594 28.327 64.086 43.927 102.752 43.927 38.667 0 75.158-15.6 102.751-43.926 27.697-28.433 42.951-66.092 42.951-106.042v-67.746c0-.052.001-.104.001-.157.01-2.102.028-56.416.036-84.954 0-8.668-7.696-15.724-17.156-15.724s-17.156 7.056-17.156 15.729v88.569c0 8.284-6.716 15-15 15h-.143c-8.284 0-15-6.716-15-15v-191.224c0-8.673-7.696-15.729-17.156-15.729s-17.156 7.056-17.156 15.729v121.224c0 8.281-6.711 14.996-14.993 15-.002 0-.005 0-.007 0-8.279.001-14.992-6.706-15-14.986l-.143-152.021c0-8.687-7.696-15.742-17.155-15.742-9.46 0-17.156 7.056-17.156 15.728v152.021c0 8.284-6.716 15-15 15h-.143c-8.284 0-15-6.716-15-15v-131.49c0-8.673-7.696-15.729-17.156-15.729s-17.156 7.056-17.156 15.729v161.49c0 8.284-6.716 15-15 15s-15.044-6.716-15.044-15v-100.56c.002-8.673-7.653-15.729-17.061-15.729zm289.744 152.826h.01z" data-original="#000000" class="active-path" data-old_color="#000000" fill="#EC5E87"/></g> </svg>
